<svg xmlns="http://www.w3.org/2000/svg">
	<symbol id="social-icon" viewBox="0 0 20 20">
		<path fill="none" stroke="#aa3bff" stroke-linecap="round" stroke-linejoin="round" stroke-width="1.35" d="M12.5 6.667a4.167 4.167 0 1 0-8.334 0 4.167 4.167 0 0 0 8.334 0"/>
		<path fill="none" stroke="#aa3bff" stroke-linecap="round" stroke-linejoin="round" stroke-width="1.35" d="M2.5 16.667a5.833 5.833 0 0 1 8.75-5.053m3.837.474.513 1.035c.07.144.257.282.414.309l.93.155c.596.1.736.536.307.965l-.723.73a.64.64 0 0 0-.152.531l.207.903c.164.715-.213.991-.84.618l-.872-.52a.63.63 0 0 0-.577 0l-.872.52c-.624.373-1.003.094-.84-.618l.207-.903a.64.64 0 0 0-.152-.532l-.723-.729c-.426-.43-.289-.864.306-.964l.93-.156a.64.64 0 0 0 .412-.31l.513-1.034c.28-.562.735-.562 1.012 0"/>
	</symbol>
	<symbol id="x-icon" viewBox="0 0 19 19">
		<path fill="#08060d" fill-rule="evenodd" d="M1.893 1.98c.052.072 1.245 1.769 2.653 3.77l2.892 4.114c.183.261.333.48.333.486s-.068.089-.152.183l-.522.593-.765.867-3.597 4.087c-.375.426-.734.834-.798.905a1 1 0 0 0-.118.148c0 .01.236.017.664.017h.663l.729-.83c.4-.457.796-.906.879-.999a692 692 0 0 0 1.794-2.038c.034-.037.301-.34.594-.675l.551-.624.345-.392a7 7 0 0 1 .34-.374c.006 0 .93 1.306 2.052 2.903l2.084 2.965.045.063h2.275c1.87 0 2.273-.003 2.266-.021-.008-.02-1.098-1.572-3.894-5.547-2.013-2.862-2.28-3.246-2.273-3.266.008-.019.282-.332 2.085-2.38l2-2.274 1.567-1.782c.022-.028-.016-.03-.65-.03h-.674l-.3.342a871 871 0 0 1-1.782 2.025c-.067.075-.405.458-.75.852a100 100 0 0 1-.803.91c-.148.172-.299.344-.99 1.127-.304.343-.32.358-.345.327-.015-.019-.904-1.282-1.976-2.808L6.365 1.85H1.8zm1.782.91 8.078 11.294c.772 1.08 1.413 1.973 1.425 1.984.016.017.241.02 1.05.017l1.03-.004-2.694-3.766L7.796 5.75 5.722 2.852l-1.039-.004-1.039-.004z" clip-rule="evenodd"/>
	</symbol>
	<symbol id="mobileMenu" viewBox="0 0 24 24">
		<path d="M4 6h16M4 12h16M4 18h16" stroke-width="2" stroke-linecap="round"/>
	</symbol>

	<symbol id="drawer" viewBox="0 0 64 64">
		<path d="M12 0h52v60h-4v4h-4v-4H20v4h-4v-4h-4v-4l-3.2-.2C4.7 54.9 3.5 54.2 1 51c-1.2-2.4-1-3.7-.7-6.4l.2-2.4C1 39.4 1.6 38.6 4 37l8-1zm4 4v20h44V4zm0 24v10c2.4 2.4 2.8 2.3 6 2.3h2.4l9.6.3c2.5.5 3.5 1.4 5 3.4-.2 3.3-.6 4.6-3 7-1.9.3-1.9.3-4.1.4l-2.5.1-2.5.1-2.6.1-6.3.3-2 4h44V28zM5.7 41.6c-2 2.3-2 2.3-1.6 5.5.7 3.2.7 3.2 3.9 4.9 3.1-.3 3.1-.3 6-1l1-3h7v-2h4v2h2v-2h4l1 2v-4l-3.6-.1-4.6-.2h-2.4c-4.5-.3-6.9-.7-10.4-3.7-4-.4-4-.4-6.3 1.6"/>
		<path d="M28 32h20v4H28zM28 8h20v4H28zM8 44h4v4H8zM20 8h4v4h-4z"/>
	</symbol>

	<symbol id="wardrobe" viewBox="0 0 64 64">
		<path d="M1 1h62v58h-3v4H4v-4H1zm2 2v4h22V3zm24 0v54h16V3zm18 0v54h16V3zM3 9v24h2V21h18v12h2V9zm5 14v2h12v-2zm0 4v2h12v-2zm0 4v2h12v-2zm-5 4v10h22V35zm0 12v10h22V47zm3 12v2h52v-2z"/>
		<path d="M12 49h4v2h-4zM12 37h4v2h-4zM57 28h2v4h-2zM39 28h2v4h-2z"/>
	</symbol>

	<symbol id="kitchen" viewBox="0 0 64 64">
		<path d="M39 13h25v51H0V40h3v-3h13v3h6v-3l6.3-.2H32c3.5.2 3.9.7 6.1 3.2V23.3l-.1-3.5v-3.3C38 14 38 14 39 13m2 3v7h3v7h17V16zm3 18v7h-3v20h20V34zM3 43v3h14v-3zm17 0v18h18V43zM3 50v11h14V50z"/>
		<path d="M15 0h9v4l1.7.7c3 1.7 4.9 4 7.1 6.7l2.5 3L37 17l-1 3H2c1-5.2 2.1-6.9 5.4-10.8l2.5-3L12 4h2zM8.2 14c-1.3 1.7-1.3 1.7-1.2 3h25c-4-6.6-4-6.6-10.1-10.5C14.6 6 12.2 8 8.2 13.9M25.1 43.9H33C36 44 36 44 37 45v15H21V45c1-1 1-1 4.1-1.1M24 47v10h10V47z"/>
	</symbol>

	<symbol id="bathroom" viewBox="0 0 64 64">
		<path d="M5.8-.1h7.7L57 0v2H6v22h13v-5l2.4-.4L24 18l1-2h5l2-6h5l1 5-4-1v2h5l1 2c2.5.7 2.5.7 5 1v5h13V2h-9V0l8.5-.1C60 0 60 0 61 1l.1 5.3v16.4C61 25 61 25 60 26H45v3l19 1v7h-3v16.7l.1 3.5v3.3C61 63 61 63 60 64H25v-2h6V37H20v25h5v2H10.8l-2.5.1H5.9C4 64 4 64 3 63l-.1-5.8v-11L3 37H0v-7l19-1v-3H4c-1.7-1.7-1.1-4-1.1-6.3V3.3C3 .1 3 .1 5.8-.1M21 22l1 6c3.7 2.5 5.6 2.3 10 2.3h3.7c3.4 0 3.4 0 6.3-2.3l1-6zM2 33v1h60v-1zm4 4v7h11v-7zm27 0v25h11V37zm14 0v7h11v-7zM6 46v7h11v-7zm41 0v7h11v-7zM6 55v7h11v-7zm41 0v7h11v-7z"/>
		<path d="m27 46 3 1v5l-3 1zM35 46h2v6h-3v-5z"/>
	</symbol>

	<symbol id="exp" viewBox="0 0 512 512">
		<ellipse style="fill:#7a5238;" cx="256" cy="256" rx="256" ry="255.832"/>
		<polygon style="fill: #e8e1d9;" points="235.472,392.08 114.432,297.792 148.856,253.616 223.176,311.52 345.856,134.496 391.888,166.4 "/>
	</symbol>

	<symbol id="handshake" viewBox="0 0 480 312">
		<g>
			<g>
				<path style="fill:#E3C68C;" d="M392.59,189.479l-9.721,19.076v0.061l-15.836,31.182h-0.061l-0.428,0.917l-0.978,1.835l-25.496,22.806l-0.061,0.061l-0.673,0.611l-27.758,24.824l-0.367,0.306l-23.906,21.338l-3.546,3.18l-0.795,0.733l-5.38,4.769l-0.856,0.796h-0.061l-19.015,17.058h-0.061c-0.367,0.366-0.795,0.672-1.162,1.04l-0.306,0.306l-1.712,1.528l-0.367-0.367l-12.351-13.818l-3.546-3.974l-4.769-5.319l-3.302-3.73l-0.367-0.366l-3.363-3.792l-17.609-19.687l-3.668-4.096v-0.061l-1.712-1.896l-1.957-2.14l-0.183-0.184l-17.12-19.26l-3.669-4.035v-0.061l-3.668-4.036l-17.425-19.566l-3.546-3.974l10.639-9.538l11.311-10.149l32.222-28.798l21.889-19.565l15.835-14.184l5.442-4.83l3.179-1.529l39.803-19.626h0.061l7.276-3.608l11.495-5.686l27.758,26.963L392.59,189.479z"/>
				<polygon style="fill:#FFFFFF;" points="479.106,138.303 416.252,194.492 408.976,200.973 390.695,217.359 382.869,208.616 382.869,208.555 331.999,151.693 303.446,119.716 294.764,109.994 313.045,93.669 320.321,87.127 383.236,30.999 416.008,67.684"/>
				<polygon style="opacity:0.07;fill:#0F0F0F;" points="497.387,121.978 479.106,138.303 416.252,194.492 408.976,200.973 349.363,134.329 313.045,93.669 320.321,87.127 400.477,15.469 401.456,14.614 416.864,31.855 433.372,50.32"/>
				<polygon style="fill:#7a5238;" points="512,123.629 510.227,125.219 423.589,202.685 416.252,194.492 356.272,127.42 320.321,87.127 313.045,78.996 392.774,7.765 401.456,0 440.281,43.411"/>
				<g>
					<polygon style="fill:#FCEFC7;" points="357.495,231.789 357.067,232.278 333.1,259.119 333.038,259.18 332.427,259.852 307.726,287.427 307.42,287.794 287.549,310.049 283.086,315.063 282.535,315.675 277.583,321.177 258.935,342.026 258.813,342.21 258.262,341.721 256.428,340.07 238.147,323.745 232.766,318.915 229.342,315.858 228.67,315.246 225.185,312.128 206.414,295.375 205.008,294.153 200.911,290.484 200.911,290.423 196.876,286.816 196.815,286.755 177.25,269.329 173.153,265.661 173.153,265.599 169.057,261.992 147.657,242.855 146.801,241.082 146.251,240.042 143.622,234.967 129.804,207.821 120.633,189.784 198.283,114.335 208.737,119.471 223.717,126.869 230.015,129.987 246.706,138.242 256.306,142.95 260.097,144.784 274.954,158.052 301.734,181.957 323.867,201.767"/>
					<polygon style="fill:#FFFFFF;" points="217.236,109.994 208.737,119.471 129.804,207.821 121.305,217.359 103.024,200.973 95.748,194.492 32.894,138.303 128.764,30.999 191.679,87.127 198.955,93.669"/>
					<polygon style="opacity:0.07;fill:#0F0F0F;" points="198.955,93.669 103.024,200.973 95.748,194.492 32.894,138.303 14.613,121.978 61.325,69.702 110.544,14.614 113.662,17.365 191.679,87.127"/>
					<polygon style="fill:#5a3e2b;" points="198.955,78.996 191.679,87.127 95.748,194.492 88.411,202.685 53.744,171.686 0,123.629 110.544,0 121.366,9.661"/>
					<path style="fill:#FCEFC7;" d="M326.992,204.04c-7.618-6.808-19.314-6.152-26.122,1.467c-6.808,7.618-6.152,19.314,1.467,26.122l44.855,40.087c7.618,6.808,19.314,6.152,26.122-1.467c6.809-7.618,6.152-19.314-1.466-26.122L326.992,204.04z"/>
					<path style="fill:#FCEFC7;" d="M302.379,231.816c-7.618-6.809-19.514-5.928-26.569,1.966c-7.055,7.894-6.598,19.813,1.02,26.622l44.855,40.087c7.618,6.809,19.514,5.928,26.569-1.966c7.055-7.894,6.598-19.813-1.02-26.622L302.379,231.816z"/>
					<path style="fill:#FCEFC7;" d="M268.893,252.724c-7.618-6.808-19.314-6.152-26.122,1.467c-6.808,7.618-6.152,19.314,1.467,26.122l44.855,40.087c7.618,6.808,19.314,6.152,26.122-1.467c6.809-7.618,6.152-19.314-1.466-26.122L268.893,252.724z"/>
					<path style="fill:#FCEFC7;" d="M280.498,337.567c-4.928,5.511-12.413,7.375-19.055,5.408c-0.843-0.247-1.673-0.555-2.481-0.932c-0.24-0.11-0.48-0.226-0.713-0.35c-0.74-0.377-1.453-0.809-2.145-1.295c-0.034-0.021-0.069-0.041-0.103-0.069c-0.562-0.398-1.103-0.829-1.624-1.296l-12.653-11.31l-9.384-8.383l-3.29-2.947l-0.822-0.733l-3.359-3.002l-15.347-13.716c-1.2-1.069-2.228-2.262-3.078-3.544c-0.357-0.535-0.686-1.083-0.973-1.645c-0.946-1.789-1.576-3.701-1.885-5.662c-0.007-0.014-0.007-0.021-0.007-0.027c-0.171-1.083-0.247-2.18-0.226-3.276c0.027-1.487,0.233-2.968,0.623-4.414c0.72-2.721,2.077-5.312,4.079-7.554c3.002-3.359,6.957-5.367,11.097-5.97c1.001-0.151,2.022-0.219,3.037-0.192h0.007c1.57,0.027,3.132,0.254,4.654,0.679c0.254,0.069,0.5,0.144,0.747,0.219c2.365,0.775,4.606,2.036,6.58,3.797l18.274,16.334l2.762,2.468l1.693,1.515l2.481,2.214l19.645,17.561c0.884,0.788,1.673,1.645,2.365,2.557c0.418,0.535,0.795,1.097,1.138,1.666c0.151,0.24,0.288,0.487,0.418,0.733c0.72,1.316,1.268,2.707,1.638,4.133C286.112,326.333,284.789,332.762,280.498,337.567z"/>
				</g>
				<path style="fill:#E3C68C;" d="M247.807,144.906l-0.122,4.403l-0.428,17.486l-0.367,16.142c-0.245,10.21-8.682,18.281-18.893,18.036c-9.966-0.245-17.792-8.132-18.037-17.915c-0.061-0.305-0.061-0.611-0.061-0.979l0.917-38.03c0.183-8.132,5.564-14.857,12.901-17.181c1.895-0.61,3.974-0.916,6.053-0.855c7.888,0.122,14.491,5.197,16.936,12.228C247.501,140.32,247.868,142.583,247.807,144.906z"/>
				<path style="opacity:0.04;fill:#0F0F0F;" d="M287.565,310.04c-0.041,0.823-0.117,1.638-0.24,2.454c-0.267,1.741-0.72,3.455-1.357,5.107c-0.391,1.001-0.843,1.981-1.378,2.934c-1.261,2.289-2.927,4.407-4.99,6.251l-18.157,16.19c-0.843-0.247-1.673-0.555-2.481-0.932l-0.144,0.158l-0.569-0.507c-0.74-0.377-1.453-0.809-2.145-1.295l-1.7,1.515l-0.336-0.377c-7.361,3.969-16.752,2.536-22.565-3.969c-3.393-3.797-4.928-8.602-4.675-13.318c0.144-2.721,0.891-5.408,2.221-7.855l-0.822-0.733l-5.319,4.736c-0.418,0.377-0.85,0.727-1.296,1.056v0.007c-7.595,5.655-18.397,4.675-24.827-2.529c-3.379-3.784-4.922-8.568-4.682-13.27v-0.007c0.226-4.435,2.043-8.794,5.401-12.146l-9.473,8.438c-0.37,0.336-0.754,0.651-1.152,0.946c-7.608,5.778-18.5,4.832-24.97-2.413c-4.167-4.661-5.538-10.851-4.222-16.512v-0.007c0.823-3.592,2.728-6.964,5.689-9.603l9.775-8.712l-0.014-0.014l-10.426,9.288c-2.728,2.433-5.97,3.914-9.329,4.455c-6.032,0.994-12.42-1.028-16.793-5.922c-6.813-7.622-6.155-19.316,1.467-26.122l5.305-4.723l47.028-20.78c0,0,9.891,5.056,11.714,8.497c1.823,3.441,0.802,5.751,0.432,8.609c0.507-0.041,1.028-0.055,1.542-0.055c6.827,0,13.346,2.92,17.89,8.006c3.413,3.811,5.374,8.424,5.922,13.161c3.393-1.768,7.177-2.714,11.063-2.714c0.514,0,1.021,0.014,1.529,0.048c6.265,0.404,12.16,3.256,16.361,7.958c4.956,5.545,6.854,12.777,5.819,19.604c0.315-0.014,0.63-0.021,0.946-0.021c6.827,0,13.346,2.92,17.89,8.006C285.858,297.798,287.853,303.974,287.565,310.04z"/>
				<path style="fill:#E3C68C;" d="M298.249,159.886c-8.193-2.324-16.203-2.568-23.295-1.835c-16.019,1.773-27.636,8.743-27.636,8.743h-0.061l-15.407-3.301l-1.834-33.506l-0.245-3.974l66.339-2.69h0.061C296.17,123.324,325.09,167.468,298.249,159.886z"/>
				<path style="fill:#E3C68C;" d="M196.778,240.022c-0.822,3.585-2.728,6.964-5.682,9.603l-10.673,9.507l-7.286,6.498l-10.426,9.288c-2.728,2.433-5.97,3.914-9.329,4.455c-6.032,0.994-12.42-1.028-16.793-5.922c-6.813-7.622-6.155-19.316,1.467-26.122l8.17-7.279l9.542-8.506l10.672-9.507c7.615-6.807,19.309-6.148,26.122,1.467C196.73,228.171,198.101,234.36,196.778,240.022z"/>
				<path style="fill:#E3C68C;" d="M222.558,263.814c-0.048,0.953-0.171,1.906-0.364,2.845h-0.007c-0.72,3.475-2.454,6.779-5.162,9.425l-0.02,0.021c-0.192,0.192-0.391,0.377-0.59,0.555L205.1,286.741l-1.515,1.35l-2.666,2.372l-3.393,3.023c-0.007,0.007-0.014,0.014-0.021,0.021l-9.473,8.438c-0.37,0.336-0.754,0.651-1.152,0.946c-7.608,5.778-18.5,4.832-24.97-2.413c-4.167-4.661-5.538-10.851-4.222-16.512v-0.007c0.823-3.592,2.728-6.964,5.689-9.603l9.775-8.712l7.286-6.491l11.317-10.083c2.728-2.433,5.97-3.914,9.329-4.462c6.032-0.987,12.427,1.035,16.8,5.929C221.269,254.32,222.805,259.111,222.558,263.814z"/>
				<path style="fill:#E3C68C;" d="M256.885,285.885c-0.37,1.467-0.918,2.893-1.659,4.25c0,0.007-0.007,0.014-0.014,0.021c-0.98,1.816-2.289,3.496-3.921,4.956l-21.557,19.199l-1.062,0.953l-0.445,0.398l-5.319,4.736c-0.418,0.377-0.85,0.727-1.296,1.056v0.007c-7.595,5.655-18.397,4.675-24.827-2.529c-3.379-3.784-4.922-8.568-4.682-13.27v-0.007c0.226-4.435,2.043-8.794,5.401-12.146c0.007-0.007,0.014-0.014,0.021-0.021c0.24-0.226,0.48-0.459,0.726-0.679l2.653-2.365l2.673-2.379l1.501-1.343l11.927-10.618l0.02-0.021l9.61-8.561c0.069-0.062,0.137-0.123,0.213-0.185c0.301-0.26,0.61-0.514,0.925-0.747c3.167-2.42,6.909-3.66,10.665-3.756c5.257-0.151,10.542,1.933,14.319,6.155C257.015,273.752,258.352,280.12,256.885,285.885z"/>
				<path style="fill:#E3C68C;" d="M281.506,313.618c-0.034,0.123-0.069,0.254-0.11,0.384c-0.829,2.934-2.399,5.689-4.688,7.979c-0.007,0.007-0.014,0.014-0.021,0.021c-0.24,0.24-0.487,0.473-0.74,0.699l-18.322,16.334l-0.007,0.007c-0.398,0.35-0.802,0.685-1.22,1.001c-0.13,0.096-0.26,0.192-0.398,0.288c-0.624,0.446-1.268,0.843-1.933,1.206c-7.361,3.969-16.752,2.536-22.565-3.969c-3.393-3.797-4.928-8.602-4.675-13.318c0.144-2.721,0.891-5.408,2.221-7.855c0.096-0.178,0.192-0.356,0.301-0.528c0.226-0.397,0.473-0.781,0.74-1.158c0.809-1.172,1.769-2.269,2.879-3.263l18.322-16.334c1.7-1.522,3.605-2.666,5.614-3.441c0.007-0.007,0.014-0.014,0.027-0.014c1.343-0.521,2.735-0.884,4.147-1.069c5.895-0.816,12.071,1.22,16.334,5.991C281.711,301.383,283.034,307.812,281.506,313.618z"/>
			</g>
			<path style="opacity:0.04;fill:#0F0F0F;" d="M177.132,306.577c3.442-0.266,6.836-1.475,9.748-3.686c0.398-0.295,0.782-0.61,1.152-0.946l9.473-8.438c-3.359,3.352-5.175,7.711-5.401,12.146v0.007c-0.24,4.702,1.302,9.486,4.682,13.27c6.43,7.205,17.232,8.184,24.827,2.529v-0.007c0.446-0.329,0.878-0.678,1.296-1.056l5.319-4.736l0.822,0.734c-1.33,2.447-2.077,5.134-2.221,7.855c-0.253,4.716,1.282,9.521,4.675,13.318c5.813,6.505,15.203,7.938,22.565,3.969l0.336,0.376l1.7-1.514c0.692,0.487,1.405,0.919,2.145,1.295l0.569,0.508l0.144-0.158c0.809,0.377,1.638,0.686,2.481,0.932c6.642,1.967,14.127,0.103,19.055-5.408c4.291-4.805,5.614-11.234,4.092-17.033c0.534-0.951,0.986-1.93,1.375-2.929l3.127,2.794c7.618,6.808,19.314,6.151,26.122-1.467c5.909-6.612,6.177-16.286,1.17-23.18l5.301,4.736c7.618,6.809,19.514,5.929,26.568-1.966c7.055-7.893,6.599-19.813-1.02-26.621l-7.247-6.477l0.083-0.075l7.121,6.365c7.618,6.808,19.314,6.151,26.122-1.467c6.809-7.618,6.152-19.313-1.466-26.122l-4.863-4.346l15.884-31.225l7.842,8.776l25.554-22.838l7.308,8.177l88.418-79.018L440.288,43.42L177.132,306.577z"/>
		</g>
	</symbol>

	<symbol id="logo-architect" viewBox="270 200 1000 1000">
		<path fill="#a5a391" d="M734.84 274.94C789 274.15 842.55 280.57 894 298l3.39 1.13A480 480 0 0 1 949 320l3.1 1.46c25.46 12.07 49.14 27 71.9 43.54l3.1 2.25a325 325 0 0 1 18.74 15.06 332 332 0 0 0 8.85 7.25c4.64 3.77 8.82 7.85 13 12.12a88 88 0 0 0 6.06 5.5c6.64 5.69 12.37 12.38 18.25 18.82l2.59 2.8a329 329 0 0 1 14.08 16.53l2.83 3.53c20.53 25.41 37.17 53.37 52.5 82.14l1.61 3c41.47 77.35 61.21 164.55 37.2 355.81-19.16 63.24-51.26 123.69-96.26 172.39q-2.04 2.2-4 4.49a288 288 0 0 1-15.9 16.78l-4.76 4.77c-5.46 5.47-11 10.76-16.89 15.76l-3.25 2.85A460 460 0 0 1 1034 1129l-2.17 1.63a401 401 0 0 1-27.33 18.75l-2.77 1.75-2.57 1.58-2.3 1.42-1.86.87-2-1 2.36-1.59 12.7-8.54A437 437 0 0 0 1045 1116l1.58-1.32c16.07-13.45 32.13-27.72 45.73-43.71 1.93-2.25 3.93-4.42 5.94-6.6a290 290 0 0 0 14.2-17.37l5.1-6.57 3.58-4.62 1.72-2.21 1.6-2.08 1.42-1.84c1.32-1.8 1.32-1.8 2.13-4.68l-1.65 2.24A452 452 0 0 1 1110 1048l-1.42 1.7a256 256 0 0 1-17.56 19.28 110 110 0 0 0-5.64 6.15c-5 5.8-10.42 11-16.22 16a401 401 0 0 0-6.97 6.25c-24.7 22.2-52.74 41.48-81.89 57.36a597 597 0 0 0-6.35 3.53c-53.69 29.74-115.01 46.47-175.95 51.73l-2.8.26c-8.86.76-17.68.92-26.57.94l-2.32.01-12.2.03q-4.94 0-9.87.04c-26.9.18-53.39-.92-79.93-5.72l-3.69-.64A919 919 0 0 1 630 1199c42.85 11.8 85.92 18.45 130.44 18.31H764c19.17-.05 37.98-.82 57-3.31l3.38-.42c37.59-4.8 81.34-13.33 114.84-31.8 1.78-.78 1.78-.78 4.78.22-73.79 35.08-161.78 50.06-243 40l-3.84-.46c-62.94-7.6-123.98-26.8-178.74-59.11a596 596 0 0 0-6.4-3.72A367 367 0 0 1 466 1127l-1.93-1.54a400 400 0 0 1-21.66-18.26q-1.96-1.8-3.98-3.53c-6.5-5.54-12.52-11.57-18.56-17.61l-5.6-5.57A203 203 0 0 1 396 1060l-3.39-4.06c-13.52-16.11-25.4-33.16-36.61-50.94l-1.22-1.92C346.84 990.45 339.92 977.2 333 964l-.99-1.88A518 518 0 0 1 304 899l-1.1-3c-13.93-38.42-21.79-79.33-24.9-120l-.18-2.14c-7.4-92.9 17.21-187.94 64.18-267.86l1.42-2.43c13.28-22.62 28.7-44.35 46.58-63.57l3.38-3.87c10.54-12.08 21.44-24.09 33.69-34.47 2.23-1.92 4.39-3.92 6.56-5.91a295 295 0 0 1 17.37-14.2 809 809 0 0 0 6.37-5.01c8.61-6.8 17.3-13.3 26.56-19.21l7.16-4.65 5.22-3.37 2.52-1.64 2.35-1.5 2.09-1.34L505 344l2 1-1.9 1.25c-18 11.82-35.78 23.77-51.97 38.02a216 216 0 0 1-8.7 7.17c-4.94 4-9.4 8.4-13.84 12.96-2.5 2.56-5 4.99-7.76 7.25a46 46 0 0 0-6.27 6.23 115 115 0 0 1-7.06 7.62c-17 16.8-32.14 37.1-44.5 57.5l1.11-1.54c6.84-9.44 13.73-18.74 21.38-27.55q3.58-4.2 7.01-8.53c4-4.94 8.4-9.37 12.93-13.81 2.8-2.8 5.39-5.73 7.96-8.74 4.45-5.07 9.36-9.57 14.47-13.96 2.3-2 4.52-4.06 6.77-6.12a295 295 0 0 1 17.37-14.2 809 809 0 0 0 6.37-5.01c8.57-6.78 17.21-13.26 26.43-19.14q2.38-1.5 4.75-3.06C507.2 351.18 523.3 342.3 540 334l2.82-1.42C605.6 301.05 674.38 289.6 744 288l3.77-.1c50.9-1.07 100.45 6.8 149.23 21.1-45.25-15.79-93.42-26.99-141.6-27.2l-3.25-.02q-5.17-.03-10.34-.03h-3.58c-19.26.02-38.13.68-57.23 3.25l-3.9.52c-50.05 6.9-100 21.82-144.73 45.47L530 332l-2-1a465 465 0 0 1 70-31l3.16-1.1c42.62-14.61 88.56-23.23 133.68-23.96M686 306l-3.21.53c-78.6 13.24-155.32 47.71-215.77 99.9a307 307 0 0 1-8.58 7c-6.26 5.1-11.82 10.8-17.44 16.57q-4.41 4.44-8.9 8.82c-7.02 6.92-13.93 13.76-20.01 21.54a190 190 0 0 1-5.96 7.11C347.91 534.6 312.59 626.57 304 741l-.1 2.87C301.2 831.03 330.08 921.7 378 994l1.38 2.1a407 407 0 0 0 38.28 49.32 172 172 0 0 1 3.7 4.18c5.43 6.38 11.34 12.25 17.26 18.15l5.42 5.43c5.81 5.82 11.64 11.55 17.96 16.82l2.55 2.16q3.38 2.76 6.78 5.5 1.73 1.38 3.44 2.79c39.73 32.43 85.82 57.78 134.23 74.55l3.5 1.22c79.52 27.35 163.28 30.71 244.5 8.78l2.93-.78c63.69-17.25 123.37-48.5 173.28-91.72q2-1.67 4.07-3.28c8.03-6.35 15.2-13.43 22.41-20.7a1963 1963 0 0 1 10.23-10.27l1.84-1.85c4.27-4.31 8.28-8.8 12.24-13.4l2.56-2.92C1144.54 972.8 1181.48 887.43 1195 763l.06-2.56C1196.9 675 1172.53 589.74 1128 517l-1.59-2.62a325 325 0 0 0-21-30.56q-2.02-2.61-4-5.25A453 453 0 0 0 1074 446l-1.36-1.5c-9.02-9.91-18.13-19.88-28.36-28.56a298 298 0 0 1-5.4-4.73A399 399 0 0 0 972 363l-1.82-1.05A663 663 0 0 0 956 354l-2.5-1.37a439.5 439.5 0 0 0-174.64-51.91c-31.07-2.63-62.2.24-92.86 5.28m-173 53-1 2 3-1zm-9.41 5.64-2.72 1.73-2.93 1.88-3 1.92A478 478 0 0 0 442 410l-2.17 1.86Q436.9 414.4 434 417l-2.55 2.27a510 510 0 0 0-18.26 17.42l-2.14 2.12c-4 4.02-7.82 8.13-11.52 12.43a255 255 0 0 1-5.65 6.2c-5.9 6.52-11.1 13.55-16.38 20.56q-1.94 2.58-3.91 5.13C337.72 529.94 313.19 584.27 298 641l-.77 2.8c-8.6 31.65-10.92 65.5-10.23 98.2h1l.1-2.1c2.1-40.1 8.6-79.63 20.9-117.9l1.07-3.36A459 459 0 0 1 387.1 474.3c12.27-15.59 25.68-30.13 39.66-44.17l2.4-2.42c4.79-4.78 9.7-9.32 14.85-13.71l3.35-2.92a528 528 0 0 1 22.73-18.59q3.09-2.4 6.13-4.83a395 395 0 0 1 29.17-21.11l2.05-1.35c1.72-1.13 1.72-1.13 2.57-3.2-2.77 0-4.08 1.16-6.41 2.64M1082 442c1.67 4.05 4.5 7.02 7.38 10.25a315 315 0 0 1 17.13 21.71l2.94 4c57.64 77.98 84.63 174.72 80.8 345.23A472 472 0 0 1 1174 893l-1.02 3.25c-5.46 17.07-12.36 33.4-19.7 49.73-1.26 2.97-2.3 5.95-3.28 9.02 4.74-4.13 6.78-10.4 9.38-16l.92-1.99A449 449 0 0 0 1188 859l.83-3.24c4.39-17.41 7.63-35 10.17-52.76l.5-3.43c5.33-37.92 4.94-78.69-.5-116.57l-.3-2.1c-6.87-48.86-20.14-98.28-43.7-141.9l-.99-1.87c-9.15-17.28-20.45-33.39-32.01-49.13l-1.44-1.98A258 258 0 0 0 1101 462l-3.5-4a1500 1500 0 0 0-8.25-9.37l-2.23-2.53c-2.03-2.26-2.03-2.26-5.02-4.1m-719 42v3Zm-2 3v3Zm-2 3 1 2Zm-2 3 1 2Zm-2 3 1 2Zm-3 5 1 2Zm-3 5 1 2Zm10 18 1 2Zm-4 7 1 2Zm-1 2 1 2Zm-1 2 1 2Zm-1 2 1 2Zm-1 2 1 2Zm-1 2c-28.92 51.11-44.43 110-51 168l-.36 3.19c-8.94 82.4 6.81 169.6 43.36 243.81l1.38 2.8A302 302 0 0 0 364 994l2.75 4.12a350 350 0 0 0 18.02 24.35l3.28 4.13c13.82 17.54 29.06 33.74 44.95 49.4l2-1-1.72-1.69c-5-4.93-9.72-9.98-14.28-15.31l-2.64-3.02C354.3 983.98 316.2 894.6 306 798q-.14-1.46-.32-2.95c-8.56-83.11 5.9-168.62 44.27-249.49L351 543zm861 224-.2 2.45c-3.36 40.97-10.76 80.48-23.8 119.55l-1.09 3.26c-5.62 16.7-12.46 32.78-19.91 48.74l-1.25 2.7c-13.03 27.79-29.92 54.1-48.75 78.3l-2.6 3.4a260 260 0 0 1-16.7 19.69 204 204 0 0 0-5.7 6.42c-4.9 5.62-10.19 10.86-15.46 16.13l-5.32 5.36a242 242 0 0 1-21.22 19q-3.62 3.09-7.19 6.25A528 528 0 0 1 1000 1129l-7 5 2 1c1.79-.78 1.79-.78 3.72-2.07l2.3-1.45 2.48-1.6 2.57-1.65a423 423 0 0 0 43.77-32.77 568 568 0 0 0 35.54-32.71l2.55-2.54c4.9-4.91 9.57-9.94 14.07-15.21l2.89-3.28a362 362 0 0 0 19.58-24.63q2.3-3.14 4.65-6.26c25.85-34.84 46.28-74.03 60.88-114.83l1.09-3.02c14.66-41 21.48-84.45 20.91-127.98zm-62 190 1 2Zm-1 2 1 2Zm-1 2 1 2Zm-1 2 1 2Zm-1 2 1 2Zm-1 2 1 2Zm-1 2 1 2Zm4 28 1 2Zm-3 5 1 2Zm-2 3 1 2Zm-1 2 1 2Zm-2 3 1 2Zm-2 3v3Zm-2 3v3Zm-2 3v3Zm-2 3v3Zm-140 115-1 2 3-1zm-371 61c2.72 2.3 2.72 2.3 5.19 1.63l1.81-.63z"/>
		<path fill="#424242" d="m644.2 634.61 3.8-.03 4.12.02h13.18q5.67.04 11.33 0h12.97c15.48-.07 30.43 1.85 42.27 12.65 7.86 8.53 10.68 19.33 10.44 30.66-.92 9.2-4.8 15.71-11.31 22.09a25 25 0 0 0 5.37 7.69c6.67 7.46 9 15.86 8.84 25.76-.96 11.52-5.57 22.68-14.21 30.55-11.68 8.47-22.52 9.45-36.43 9.36h-5.06l-10.55-.02q-6.76-.04-13.53-.02a2745 2745 0 0 1-15.42-.02q-3.47 0-6.95-.03h-4C636 773 636 773 634 771c-.26-2.31-.26-2.31-.27-5.27l-.02-3.39v-3.73l-.02-3.92-.02-10.65-.02-8.89q-.02-10.47-.02-20.96 0-10.82-.05-21.64-.04-9.3-.04-18.57l-.02-11.1q-.04-6.18 0-12.36l-.04-3.73.03-3.4v-2.95c.49-2.44.49-2.44 2.34-4.25 2.9-1.6 5.05-1.57 8.35-1.58M661 661v29q8.57.11 17.13.16l5.82.07 8.4.06 2.6.05c6.46 0 11.05-1.15 16.36-5.03 2.92-4 4.04-7.84 3.35-12.69-1.18-4.25-2.2-6.24-5.66-9.12-3.59-1.8-6.23-2.63-10.2-2.61h-2.54l-5.55.02-14.93.04zm0 54v33q8.76.11 17.5.16l5.95.07 8.58.06 2.66.05c6.02 0 12.23-.47 16.87-4.8 4.14-4.83 4.74-7.89 4.65-14.07-.4-4.71-2.6-6.84-5.77-10.16-8.61-6.62-22.32-4.54-32.57-4.44l-5.2.03q-6.34.03-12.67.1m119.47-80.5 2.58-.02q4.22-.01 8.45.02h5.87l12.31.03q7.89.04 15.78.02 6.06-.01 12.12.01h5.82q4.07 0 8.13.04l2.43-.02c3.29.05 5.64.2 8.54 1.81 1.98 2.12 2 3.3 2 6.17v2.67l-.06 2.77.02 2.77c-.06 6.67-.06 6.67-1.6 8.84-2.72 2.03-4.8 1.75-8.17 1.73h-3.94l-4.26-.05-4.36-.01q-5.74-.02-11.47-.07-6.87-.05-13.76-.07-10.45-.05-20.9-.14v30l13.24-.1 10.44-.06q5.52-.01 11.03-.07 5.31-.05 10.62-.05l6.03-.06h3.7l3.26-.02c2.68.36 2.68.36 4.53 1.75 1.5 2.1 1.52 3.4 1.51 5.95v2.53l-.05 2.63.01 2.63c-.05 6.47-.05 6.47-2.32 9.87-2.6.36-2.6.36-5.92.34h-3.76l-4.08-.05-4.16-.01q-5.47-.02-10.96-.07-5.58-.04-11.18-.06-10.97-.06-21.94-.15v32l14.55-.1 9.12-.05q7.24-.02 14.48-.08 5.84-.05 11.67-.05l4.45-.04q3.12-.03 6.24-.02l3.59-.02c2.9.36 2.9.36 4.78 1.75 1.46 2.1 1.5 3.42 1.48 5.95v2.53l-.05 2.63.01 2.63c-.05 6.47-.05 6.47-2.32 9.87-2.97.3-5.74.42-8.72.4l-2.73.02q-4.5.03-8.98.01l-6.23.02h-13.06q-8.38-.02-16.76.03l-12.86.02-6.18.01h-8.63l-2.6.02c-5.79-.07-5.79-.07-7.97-2.22-1.54-2.78-1.66-4.53-1.67-7.7l-.03-3.31.02-3.62-.02-3.83-.02-10.37v-8.67q-.03-10.22 0-20.43.01-10.54-.04-21.09-.03-9.05-.02-18.1l-.01-10.81v-12.06l-.02-3.62.03-3.31v-2.88c1.4-7.02 6.9-7.08 12.97-7.01m112.97 108.1 3.2-.01 3.36.03 3.35-.03 3.21.01 2.94.01c2.5.39 2.5.39 4.32 1.58 1.63 2.5 1.55 4.28 1.54 7.25v3.2l-.05 3.36.01 3.35c-.05 8.25-.05 8.25-2.32 11.65-2.47.39-2.47.39-5.56.4l-3.36.01-3.52-.03-3.5.03-3.37-.01-3.09-.01c-2.6-.39-2.6-.39-4.43-1.58-1.6-2.5-1.56-4.29-1.57-7.25l-.01-3.2.03-3.36-.03-3.35.01-3.21.01-2.94c.39-2.5.39-2.5 1.58-4.31 2.49-1.63 4.28-1.58 7.25-1.59"/>
		<path fill="#414141" d="M695 843c5 1 5 1 6.4 2.4l1.06 1.76 1.18 1.9 1.17 2 1.23 2.01q1.5 2.46 2.96 4.93l1-14 4-1c1 1 1 1 1.11 3.4l-.01 3.17-.01 3.4-.03 3.6-.01 3.6L715 869c-2.33.2-2.33.2-5 0-1.49-1.38-1.49-1.38-2.68-3.28l-1.31-2.05-1.32-2.17-1.38-2.17A431 431 0 0 1 700 854l-1 15h-4zm-240.25-.25 3.17-.08c4.37.47 6.97 2.11 9.9 5.33a22.3 22.3 0 0 1-.13 17.06C466 867 466 867 463 869c-2.6.14-5.1.19-7.69.13l-2.12-.03-5.19-.1-.06-12.44-.03-3.59v-3.4l-.02-3.16c.21-4.57 2.86-3.6 6.86-3.66M453 848v17c7.5.74 7.5.74 11-2 1.34-5.24.82-8.94-1-14-1-1.23-1-1.23-3.07-1.1z"/>
		<path fill="#404040" d="M655 843c3.49 1.44 4.65 2.29 6.31 5.69L662 851c-1.75.75-1.75.75-4 1l-1.81-2c-2.15-2.43-2.15-2.43-5.88-1.87L647 849c-1.85 3.7-1.47 7.96-1 12 1.46 2.8 1.46 2.8 4 4 2.61.24 2.61.24 5-1 1.84-2.46 1.84-2.46 3-5h-6v-4h10c.61 8.22.61 8.22-2.37 12-4.12 3.13-6.44 3.35-11.63 3-3.54-1.65-4.81-2.72-7-6-.34-3.4-.34-3.4-.37-7.37l-.1-3.97c.53-4.16 1.53-5.74 4.47-8.66 3.2-1.6 6.52-1.37 10-1"/>
		<path fill="#414141" d="M941 843c13.93 0 13.93 0 18 3 2.28 3.43 2.27 6.45 2.25 10.5l.02 3.4c-.26 3-.6 4.64-2.27 7.1-3.68 2.46-6.45 2.23-10.69 2.13L941 869zm4 5v17c5.87.6 5.87.6 11.06-1.44a20 20 0 0 0 0-14.12c-3.46-2.42-6.93-1.68-11.06-1.44m-381-5c2.94 1.19 2.94 1.19 5 3 .81 2.69.81 2.69 1 5-3.37-.55-5.08-1.05-8-3-2.65.31-2.65.31-5 1v3l2.3.73 3.01 1.02 3 .98c2.95 1.4 4.12 2.43 5.69 5.27-.13 3.22-.41 5.22-2.37 7.81-3.64 2.66-7.3 2.56-11.63 2.19-5.57-2.89-5.57-2.89-6.87-6.25L550 862c1.69-.75 1.69-.75 4-1l2.38 2c2.51 2.38 2.51 2.38 5.93 1.75L565 864c-.08-1.96-.08-1.96-1-4-2.48-1.26-2.48-1.26-5.44-2.06-5.35-1.63-5.35-1.63-7.56-4.94.13-3.62.25-6.07 2.56-8.94 3.5-1.52 6.73-1.6 10.44-1.06m482 0c3.3 1.7 5.56 3.81 6.88 7.38l.12 2.62.25 3.38c-.36 5.16-1.55 9.02-5.37 12.62a16.8 16.8 0 0 1-11.88 0c-3.02-2.82-3.92-4.48-4.53-8.6l.03-3.9-.03-3.9c.6-4.08 1.65-5.72 4.53-8.6 3.24-1.62 6.5-1.58 10-1m-8.25 5.31c-2.8 4.3-2.62 8.72-1.75 13.69 1.9 3 1.9 3 5 4 3.26-.48 3.26-.48 6-2 1.97-3.93 1.46-8.71 1-13-1.53-2.78-1.53-2.78-4-4-3.86-.34-3.86-.34-6.25 1.31M798 843c2.88 1.19 2.88 1.19 5 3 .81 2.69.81 2.69 1 5-3.37-.55-5.08-1.05-8-3-2.65.31-2.65.31-5 1v3l2.3.77 3.01 1.04 3 1.02c2.6 1.13 4 1.93 5.69 4.17.52 3.5.44 5.29-1.44 8.31-3.7 2.44-7.16 2.91-11.56 2.69-4.94-1.94-4.94-1.94-7-4a100 100 0 0 1 0-5c2.63.49 4.18 1.12 6.44 2.63 2.5 1.65 2.5 1.65 5.37 1.06L799 864l1-4-2.3-.55-3.01-.76-3-.74c-2.74-.97-4-1.61-5.69-3.95-.65-6.1-.65-6.1 1.38-8.87 3.58-2.49 6.28-2.42 10.62-2.13"/>
		<path fill="#424242" d="M887 843c2.06.44 2.06.44 4 1l.04 1.71.27 7.66.07 2.7.19 4.96c.28 2.37.28 2.37 3.43 3.97 3.31-.28 3.31-.28 6-2q.23-2.12.32-4.25l.12-2.6.12-2.71.13-2.73.31-6.71c1.94-.56 1.94-.56 4-1 2.14 2.14 1.23 6.74 1.25 9.69l.06 2.43c.04 5.06-.52 8.5-3.31 12.88-3.35 2.63-6.88 2.36-11 2-3.4-1.36-4.65-2.2-6.12-5.57-1.07-4.17-1.14-7.96-1.07-12.24v-2.35c.05-5.7.05-5.7 1.19-6.84m-385 0h17l-1 5h-12v6h12v4h-12v7h13v4h-17zm335.77-.11 2.27.01 2.45.01 2.57.03 2.59.01 6.35.05a37 37 0 0 1 1 4l-1 1h-7v21h-4v-21h-7c-.56-1.94-.56-1.94-1-4 1-1 1-1 2.77-1.11"/>
		<path fill="#414141" d="m995 843 4 1v24l-5 1-.06-12.44-.03-3.59v-3.4l-.02-3.16C994 844 994 844 995 843m-391 0 4 1v24l-5 1-.06-12.44-.03-3.59v-3.4l-.02-3.16C603 844 603 844 604 843"/>
		<path fill="#a8a692" d="M961 1174q-2.4 1.3-4.81 2.56l-2.71 1.44c-2.48 1-2.48 1-5.48 0q2.4-1.3 4.81-2.56l2.71-1.44c2.48-1 2.48-1 5.48 0"/>
		<path fill="#a8a492" d="m524 333 2 1c-2.37 1.56-2.37 1.56-5 3l-2-1c2.38-1.56 2.38-1.56 5-3"/>
		<path fill="#a8a491" d="m979 1162 2 1-5 2z"/>
		<path fill="#a5a490" d="m986 1158 2 1-5 2z"/>
		<path fill="#a6a392" d="m991 1155 2 1-5 2z"/>
		<path fill="#a6a292" d="m510 341 2 1-5 2z"/>
		<path fill="#a5a393" d="m515 338 2 1-5 2z"/>
		<path fill="#a7a292" d="m944 1180 2 1Z"/>
		<path fill="#a7a492" d="m946 1179 2 1Z"/>
		<path fill="#aaaa98" d="m961 1172 2 1Z"/>
		<path fill="#aeae95" d="m968 1168 2 1Z"/>
		<path fill="#a7a795" d="m970 1167 2 1Z"/>
		<path fill="#aaa18e" d="m972 1166 2 1Z"/>
		<path fill="#a99f93" d="m974 1165 2 1Z"/>
		<path fill="#a7a492" d="m981 1161 2 1Z"/>
		<path fill="#a7a493" d="m517 337 2 1Z"/>
		<path fill="#a5a492" d="m526 332 2 1Z"/>
	</symbol>

	<symbol id="guarantee" viewBox="0 0 16 16">
		<path d="M8 16L4.35009 13.3929C2.24773 11.8912 1 9.46667 1 6.88306V3L8 0L15 3V6.88306C15 9.46667 13.7523 11.8912 11.6499 13.3929L8 16ZM12.2071 5.70711L10.7929 4.29289L7 8.08579L5.20711 6.29289L3.79289 7.70711L7 10.9142L12.2071 5.70711Z" fill="#7a5238"/>
	</symbol>

	<symbol id="icon-arrow" viewBox="0 0 32 32">
		<path d="M16 0C7.164 0 0 7.163 0 16s7.163 16 16 16 16-7.163 16-16S24.837 0 16 0m0 30.032C8.28 30.032 2 23.72 2 16S8.28 2 16 2s14 6.28 14 14-6.28 14.032-14 14.032m.637-20.075a1 1 0 0 0 0 1.414l3.617 3.617H8.99a1 1 0 1 0 0 2h11.327l-3.68 3.68a1 1 0 0 0 1.414 1.414l5.907-6.063-5.907-6.063a1 1 0 0 0-1.415 0z"/>
	</symbol>

</svg>
