<svg xmlns="http://www.w3.org/2000/svg">
  <symbol id="bluesky-icon" viewBox="0 0 16 17">
    <g clip-path="url(#bluesky-clip)">
      <path fill="#08060d" d="M7.75 7.735c-.693-1.348-2.58-3.86-4.334-5.097-1.68-1.187-2.32-.981-2.74-.79C.188 2.065.1 2.812.1 3.251s.241 3.602.398 4.13c.52 1.744 2.367 2.333 4.07 2.145-2.495.37-4.71 1.278-1.805 4.512 3.196 3.309 4.38-.71 4.987-2.746.608 2.036 1.307 5.91 4.93 2.746 2.72-2.746.747-4.143-1.747-4.512 1.702.189 3.55-.4 4.07-2.145.156-.528.397-3.691.397-4.13s-.088-1.186-.575-1.406c-.42-.19-1.06-.395-2.741.79-1.755 1.24-3.64 3.752-4.334 5.099"/>
    </g>
    <defs>
      <clipPath id="bluesky-clip">
        <path fill="#fff" d="M.1.85h15.3v15.3H.1z"/>
      </clipPath>
    </defs>
  </symbol>
  <symbol id="discord-icon" viewBox="0 0 20 19">
    <path fill="#08060d" d="M16.224 3.768a14.5 14.5 0 0 0-3.67-1.153c-.158.286-.343.67-.47.976a13.5 13.5 0 0 0-4.067 0c-.128-.306-.317-.69-.476-.976A14.4 14.4 0 0 0 3.868 3.77C1.546 7.28.916 10.703 1.231 14.077a14.7 14.7 0 0 0 4.5 2.306q.545-.748.965-1.587a9.5 9.5 0 0 1-1.518-.74q.191-.14.372-.293c2.927 1.369 6.107 1.369 8.999 0q.183.152.372.294-.723.437-1.52.74.418.838.963 1.588a14.6 14.6 0 0 0 4.504-2.308c.37-3.911-.63-7.302-2.644-10.309m-9.13 8.234c-.878 0-1.599-.82-1.599-1.82 0-.998.705-1.82 1.6-1.82.894 0 1.614.82 1.599 1.82.001 1-.705 1.82-1.6 1.82m5.91 0c-.878 0-1.599-.82-1.599-1.82 0-.998.705-1.82 1.6-1.82.893 0 1.614.82 1.599 1.82 0 1-.706 1.82-1.6 1.82"/>
  </symbol>
  <symbol id="documentation-icon" viewBox="0 0 21 20">
    <path fill="none" stroke="#aa3bff" stroke-linecap="round" stroke-linejoin="round" stroke-width="1.35" d="m15.5 13.333 1.533 1.322c.645.555.967.833.967 1.178s-.322.623-.967 1.179L15.5 18.333m-3.333-5-1.534 1.322c-.644.555-.966.833-.966 1.178s.322.623.966 1.179l1.534 1.321"/>
    <path fill="none" stroke="#aa3bff" stroke-linecap="round" stroke-linejoin="round" stroke-width="1.35" d="M17.167 10.836v-4.32c0-1.41 0-2.117-.224-2.68-.359-.906-1.118-1.621-2.08-1.96-.599-.21-1.349-.21-2.848-.21-2.623 0-3.935 0-4.983.369-1.684.591-3.013 1.842-3.641 3.428C3 6.449 3 7.684 3 10.154v2.122c0 2.558 0 3.838.706 4.726q.306.383.713.671c.76.536 1.79.64 3.581.66"/>
    <path fill="none" stroke="#aa3bff" stroke-linecap="round" stroke-linejoin="round" stroke-width="1.35" d="M3 10a2.78 2.78 0 0 1 2.778-2.778c.555 0 1.209.097 1.748-.047.48-.129.854-.503.982-.982.145-.54.048-1.194.048-1.749a2.78 2.78 0 0 1 2.777-2.777"/>
  </symbol>
  <symbol id="github-icon" viewBox="0 0 19 19">
    <path fill="#08060d" fill-rule="evenodd" d="M9.356 1.85C5.05 1.85 1.57 5.356 1.57 9.694a7.84 7.84 0 0 0 5.324 7.44c.387.079.528-.168.528-.376 0-.182-.013-.805-.013-1.454-2.165.467-2.616-.935-2.616-.935-.349-.91-.864-1.143-.864-1.143-.71-.48.051-.48.051-.48.787.051 1.2.805 1.2.805.695 1.194 1.817.857 2.268.649.064-.507.27-.857.49-1.052-1.728-.182-3.545-.857-3.545-3.87 0-.857.31-1.558.8-2.104-.078-.195-.349-1 .077-2.078 0 0 .657-.208 2.14.805a7.5 7.5 0 0 1 1.946-.26c.657 0 1.328.092 1.946.26 1.483-1.013 2.14-.805 2.14-.805.426 1.078.155 1.883.078 2.078.502.546.799 1.247.799 2.104 0 3.013-1.818 3.675-3.558 3.87.284.247.528.714.528 1.454 0 1.052-.012 1.896-.012 2.156 0 .208.142.455.528.377a7.84 7.84 0 0 0 5.324-7.441c.013-4.338-3.48-7.844-7.773-7.844" clip-rule="evenodd"/>
  </symbol>
  <symbol id="social-icon" viewBox="0 0 20 20">
    <path fill="none" stroke="#aa3bff" stroke-linecap="round" stroke-linejoin="round" stroke-width="1.35" d="M12.5 6.667a4.167 4.167 0 1 0-8.334 0 4.167 4.167 0 0 0 8.334 0"/>
    <path fill="none" stroke="#aa3bff" stroke-linecap="round" stroke-linejoin="round" stroke-width="1.35" d="M2.5 16.667a5.833 5.833 0 0 1 8.75-5.053m3.837.474.513 1.035c.07.144.257.282.414.309l.93.155c.596.1.736.536.307.965l-.723.73a.64.64 0 0 0-.152.531l.207.903c.164.715-.213.991-.84.618l-.872-.52a.63.63 0 0 0-.577 0l-.872.52c-.624.373-1.003.094-.84-.618l.207-.903a.64.64 0 0 0-.152-.532l-.723-.729c-.426-.43-.289-.864.306-.964l.93-.156a.64.64 0 0 0 .412-.31l.513-1.034c.28-.562.735-.562 1.012 0"/>
  </symbol>
  <symbol id="x-icon" viewBox="0 0 19 19">
    <path fill="#08060d" fill-rule="evenodd" d="M1.893 1.98c.052.072 1.245 1.769 2.653 3.77l2.892 4.114c.183.261.333.48.333.486s-.068.089-.152.183l-.522.593-.765.867-3.597 4.087c-.375.426-.734.834-.798.905a1 1 0 0 0-.118.148c0 .01.236.017.664.017h.663l.729-.83c.4-.457.796-.906.879-.999a692 692 0 0 0 1.794-2.038c.034-.037.301-.34.594-.675l.551-.624.345-.392a7 7 0 0 1 .34-.374c.006 0 .93 1.306 2.052 2.903l2.084 2.965.045.063h2.275c1.87 0 2.273-.003 2.266-.021-.008-.02-1.098-1.572-3.894-5.547-2.013-2.862-2.28-3.246-2.273-3.266.008-.019.282-.332 2.085-2.38l2-2.274 1.567-1.782c.022-.028-.016-.03-.65-.03h-.674l-.3.342a871 871 0 0 1-1.782 2.025c-.067.075-.405.458-.75.852a100 100 0 0 1-.803.91c-.148.172-.299.344-.99 1.127-.304.343-.32.358-.345.327-.015-.019-.904-1.282-1.976-2.808L6.365 1.85H1.8zm1.782.91 8.078 11.294c.772 1.08 1.413 1.973 1.425 1.984.016.017.241.02 1.05.017l1.03-.004-2.694-3.766L7.796 5.75 5.722 2.852l-1.039-.004-1.039-.004z" clip-rule="evenodd"/>
  </symbol>
  <symbol id="mobileMenu" viewBox="0 0 24 24">
    <path d="M4 6h16M4 12h16M4 18h16" stroke="currentColor" stroke-width="2" stroke-linecap="round"/>
  </symbol>

  <symbol id="desk" viewBox="0 -7.72 122.88 122.88">
    <g>
      <path fill-rule="evenodd" clip-rule="evenodd" d="M99.89,96.65c2.9,0,5.25,0.5,5.25,1.12c0,0.62-2.35,1.12-5.25,1.12c-2.9,0-5.25-0.5-5.25-1.12 C94.63,97.16,96.98,96.65,99.89,96.65L99.89,96.65z M33.47,0h52.4c0.83,0,1.51,0.68,1.51,1.5v31.18c0,0.83-0.68,1.51-1.51,1.51 h-52.4c-0.83,0-1.51-0.68-1.51-1.51V1.51C31.96,0.68,32.64,0,33.47,0L33.47,0L33.47,0z M52.84,36.27H66.5 c0.03,2.23,0.9,4.24,3.21,5.86h50.52c0.73,0,1.39,0.3,1.87,0.77c0.48,0.48,0.78,1.14,0.78,1.87v7.86c0,0.73-0.3,1.39-0.78,1.87 c-0.48,0.48-1.14,0.78-1.87,0.78h-0.17v50.28c0,0.51-0.21,0.98-0.55,1.31l-0.01,0.01c-0.34,0.34-0.8,0.55-1.31,0.55H82.07 c-0.51,0-0.98-0.21-1.32-0.55c-0.06-0.06-0.12-0.13-0.17-0.2c-0.24-0.31-0.38-0.7-0.38-1.12V55.28H22.39v50.28 c0,0.52-0.21,0.98-0.55,1.32c-0.34,0.34-0.81,0.55-1.32,0.55h-8.86c-0.51,0-0.97-0.21-1.31-0.55l0,0l0,0l0,0 c-0.34-0.34-0.55-0.8-0.55-1.31V55.28H2.64c-0.73,0-1.39-0.3-1.87-0.78C0.3,54.02,0,53.36,0,52.63v-7.86c0-0.73,0.3-1.39,0.78-1.87 c0.48-0.48,1.14-0.77,1.87-0.77h46.94C51.49,40.65,52.85,38.85,52.84,36.27L52.84,36.27L52.84,36.27z M59.67,29.11 c1.07,0,1.93,0.87,1.93,1.93c0,1.07-0.87,1.93-1.93,1.93c-1.07,0-1.94-0.87-1.94-1.93C57.74,29.98,58.6,29.11,59.67,29.11 L59.67,29.11z M36.49,2.84h46.35c0.73,0,1.33,0.6,1.33,1.33v22.4c0,0.73-0.6,1.33-1.33,1.33H36.49c-0.73,0-1.33-0.6-1.33-1.33V4.17 C35.16,3.44,35.76,2.84,36.49,2.84L36.49,2.84L36.49,2.84z M83.28,69.49h33.7v-14.2h-33.7V69.49L83.28,69.49z M116.99,72.56h-33.7 v14.48h33.7V72.56L116.99,72.56z M116.99,90.13h-33.7v14.22h33.7V90.13L116.99,90.13z M119.8,45.2H3.08v6.99H119.8V45.2L119.8,45.2 z M19.31,55.28h-6.44v49.06h6.44V55.28L19.31,55.28z M99.89,61.12c2.9,0,5.25,0.47,5.25,1.06s-2.35,1.06-5.25,1.06 c-2.9,0-5.25-0.48-5.25-1.06S96.98,61.12,99.89,61.12L99.89,61.12z M99.89,78.86c2.9,0,5.25,0.5,5.25,1.12 c0,0.62-2.35,1.12-5.25,1.12c-2.9,0-5.25-0.5-5.25-1.12C94.63,79.36,96.98,78.86,99.89,78.86L99.89,78.86z"/>
    </g>
  </symbol>

  <symbol id="wardrobe" viewBox="0 0 58 58">
    <path style="fill:#664031;" d="M44,51V5.451C44,4.097,45.097,3,46.451,3l0.348,0.099c0.002,0,0.003-0.001,0.005-0.002
	C46.277,1.311,44.644,0,42.687,0H5.313C2.931,0,1,1.931,1,4.313V54h46v-2.308L44,51z"/>
    <polygon style="fill:#382016;" points="6,58 3,58 3,54 8,54 "/>
    <path style="fill:#382016;" d="M44,51l13,3V5L46.451,3C45.097,3,44,4.097,44,5.451V51z"/>
    <polygon style="fill:#382016;" points="44,58 47,58 47,54 42,54 "/>
    <path style="fill:#160E0D;" d="M24,51h20V5.451C44,4.097,42.903,3,41.549,3H24V51z"/>
    <rect x="24" y="12" style="fill:#774836;" width="20" height="2"/>
    <line style="fill:none;stroke:#774836;stroke-width:2;stroke-miterlimit:10;" x1="24" y1="44" x2="44" y2="44"/>
    <rect x="24" y="17" style="fill:#AB8024;" width="20" height="2"/>
    <g>
      <path style="fill:#F7B563;" d="M29,15c-0.552,0-1,0.447-1,1v5c0,0.553,0.448,1,1,1s1-0.447,1-1v-5C30,15.447,29.552,15,29,15z"/>
      <path style="fill:#F7B563;" d="M32,15c-0.552,0-1,0.447-1,1v5c0,0.553,0.448,1,1,1s1-0.447,1-1v-5C33,15.447,32.552,15,32,15z"/>
      <path style="fill:#F7B563;" d="M35,15c-0.552,0-1,0.447-1,1v5c0,0.553,0.448,1,1,1s1-0.447,1-1v-5C36,15.447,35.552,15,35,15z"/>
      <path style="fill:#F7B563;" d="M38,15c-0.552,0-1,0.447-1,1v5c0,0.553,0.448,1,1,1s1-0.447,1-1v-5C39,15.447,38.552,15,38,15z"/>
    </g>
    <path style="fill:#382016;" d="M24,51H4V5.451C4,4.097,5.097,3,6.451,3H24V51z"/>
    <path style="fill:#D7B740;" d="M19,31c-0.552,0-1-0.447-1-1v-5c0-0.553,0.448-1,1-1s1,0.447,1,1v5C20,30.553,19.552,31,19,31z"/>
  </symbol>

  <symbol id="wardrobe2" viewBox="0 0 60 60">
    <path d="M48.522,3.185C47.684,1.259,45.823,0,43.687,0H6.313C3.384,0,1,2.384,1,5.313V56h2v4h4.618l2-4h32.764l2,4H49v-4v-2v-0.051
	l10,2.307V5.172L48.522,3.185z M47,54h-5.618H10.618H3V5.313C3,3.486,4.486,2,6.313,2h37.374c1.02,0,1.943,0.461,2.553,1.22
	c-0.025,0.009-0.047,0.024-0.072,0.034c-0.06,0.024-0.116,0.054-0.174,0.081c-0.129,0.061-0.254,0.127-0.373,0.203
	c-0.058,0.036-0.114,0.073-0.169,0.112c-0.124,0.089-0.24,0.186-0.351,0.289c-0.033,0.031-0.069,0.056-0.1,0.088
	C44.374,3.394,43.507,3,42.549,3H26h-2H7.451C5.548,3,4,4.548,4,6.451V53h20h2h18.884L47,53.488V54z M26,44V20h3v2
	c0,0.553,0.448,1,1,1s1-0.447,1-1v-2h1v2c0,0.553,0.448,1,1,1s1-0.447,1-1v-2h1v2c0,0.553,0.448,1,1,1s1-0.447,1-1v-2h1v2
	c0,0.553,0.448,1,1,1s1-0.447,1-1v-2h4v24H26z M44,46v5H26v-5H44z M40,18v-1c0-0.553-0.448-1-1-1s-1,0.447-1,1v1h-1v-1
	c0-0.553-0.448-1-1-1s-1,0.447-1,1v1h-1v-1c0-0.553-0.448-1-1-1s-1,0.447-1,1v1h-1v-1c0-0.553-0.448-1-1-1s-1,0.447-1,1v1h-3v-3h18
	v3H40z M26,13V5h16.549C43.349,5,44,5.651,44,6.451V13H26z M21,26v5c0,0.553-0.448,1-1,1s-1-0.447-1-1v-5c0-0.553,0.448-1,1-1
	S21,25.447,21,26z"/>
  </symbol>

  <symbol id="kitchen" viewBox="0 -10.41 122.88 122.88">
    <g>
      <path d="M33.5,3.86H3.86v22.75h29.65L33.5,3.86L33.5,3.86L33.5,3.86z M37.1,0h81.91c0.47,0,0.92,0.09,1.33,0.27 c0.42,0.18,0.81,0.44,1.13,0.76l0.02,0.02c0.32,0.32,0.58,0.71,0.75,1.13c0.17,0.41,0.27,0.86,0.27,1.33v23.47 c0,0.47-0.09,0.92-0.27,1.34c-0.18,0.43-0.44,0.81-0.76,1.14l-0.04,0.03c-0.32,0.31-0.69,0.56-1.1,0.73 c-0.41,0.17-0.86,0.27-1.33,0.27H86.05c-0.15,0-0.26-0.12-0.26-0.26V3.86H69.05v6.9l12.3,13.99c0.35,0.4,0.51,0.9,0.48,1.4 c-0.03,0.49-0.25,0.97-0.65,1.33l-0.02,0.01c-0.18,0.15-0.37,0.27-0.58,0.34c-0.21,0.08-0.44,0.12-0.66,0.12l-36.95,0 c-0.53,0-1.02-0.22-1.36-0.57c-0.35-0.35-0.57-0.83-0.57-1.36c0-0.28,0.06-0.54,0.17-0.78c0.11-0.25,0.27-0.47,0.47-0.65 l12.66-13.84V3.86H37.37V30.2c0,0.15-0.12,0.26-0.26,0.26H3.5c-0.47,0-0.92-0.09-1.33-0.27c-0.43-0.18-0.81-0.44-1.14-0.76 c-0.32-0.32-0.58-0.71-0.76-1.14C0.09,27.89,0,27.44,0,26.97V3.5c0-0.47,0.09-0.92,0.27-1.34C0.44,1.73,0.7,1.35,1.03,1.03 C1.04,1.01,1.05,1,1.06,1c0.32-0.31,0.69-0.56,1.1-0.73C2.58,0.09,3.03,0,3.5,0H37.1L37.1,0z M3.5,52.33h115.88 c0.47,0,0.92,0.1,1.33,0.27c0.43,0.18,0.81,0.44,1.14,0.76l0.01,0.01c0.32,0.32,0.57,0.7,0.75,1.12c0.17,0.41,0.27,0.86,0.27,1.34 v42.66c0,0.47-0.1,0.92-0.27,1.33c-0.17,0.41-0.42,0.78-0.72,1.1c-0.01,0.01-0.02,0.03-0.03,0.04l-0.01,0.01 c-0.32,0.32-0.7,0.58-1.13,0.75c-0.41,0.17-0.86,0.27-1.33,0.27H87.99c-0.08,0.02-0.16,0.04-0.25,0.06c-0.1,0.02-0.2,0.02-0.3,0.02 c-0.1,0-0.2-0.01-0.3-0.02c-0.09-0.01-0.17-0.03-0.25-0.06h-50.9c-0.08,0.02-0.16,0.04-0.25,0.06c-0.1,0.02-0.2,0.02-0.3,0.02 c-0.1,0-0.2-0.01-0.3-0.02c-0.09-0.01-0.17-0.03-0.25-0.06H3.5c-0.47,0-0.92-0.09-1.33-0.27c-0.41-0.17-0.79-0.42-1.1-0.73 c-0.02-0.01-0.03-0.02-0.04-0.04c-0.32-0.32-0.58-0.71-0.76-1.13C0.09,99.41,0,98.96,0,98.49V55.83c0-0.47,0.09-0.92,0.27-1.34 c0.18-0.43,0.44-0.81,0.76-1.14c0.01-0.01,0.02-0.02,0.04-0.03c0.32-0.31,0.69-0.56,1.1-0.73C2.58,52.42,3.03,52.33,3.5,52.33 L3.5,52.33z M119.02,56.19H89.37v41.94h29.65V56.19L119.02,56.19z M85.51,56.19H37.37v9.34h48.14V56.19L85.51,56.19z M33.51,56.19 H3.86v41.94h29.65V56.19L33.51,56.19z M37.37,98.12h48.14V69.4H37.37V98.12L37.37,98.12z M65.19,3.86H58.2v7.62 c0,0.02,0,0.04-0.01,0.07c-0.01,0.21-0.05,0.43-0.13,0.63c-0.08,0.22-0.21,0.42-0.37,0.6L47.34,24.09h28.3L65.71,12.8 c-0.16-0.17-0.3-0.38-0.39-0.6c-0.09-0.22-0.14-0.47-0.14-0.72V3.86L65.19,3.86z M93.98,58.35c0.28,0,0.55,0.06,0.79,0.16 l0.01,0.01c0.25,0.1,0.47,0.26,0.66,0.44c0.19,0.19,0.34,0.42,0.45,0.67c0.1,0.24,0.16,0.51,0.16,0.79c0,0.28-0.06,0.54-0.16,0.79 c-0.11,0.25-0.26,0.48-0.45,0.67l-0.02,0.01c-0.19,0.18-0.41,0.33-0.66,0.43c-0.24,0.1-0.51,0.16-0.79,0.16 c-0.28,0-0.55-0.06-0.79-0.16c-0.24-0.1-0.46-0.25-0.65-0.43l-0.03-0.02c-0.19-0.19-0.34-0.42-0.44-0.67l-0.01-0.01 c-0.1-0.24-0.15-0.5-0.15-0.78c0-0.28,0.06-0.55,0.16-0.79c0.1-0.25,0.26-0.48,0.45-0.67c0.19-0.19,0.42-0.34,0.67-0.45l0.01-0.01 C93.45,58.4,93.71,58.35,93.98,58.35L93.98,58.35z M22.09,5.8c0.28,0,0.55,0.06,0.79,0.16c0.25,0.1,0.48,0.26,0.67,0.45 C23.74,6.6,23.9,6.83,24,7.08c0.1,0.24,0.16,0.51,0.16,0.79c0,0.28-0.06,0.55-0.16,0.79c-0.1,0.25-0.25,0.47-0.43,0.65l-0.03,0.03 c-0.19,0.18-0.41,0.33-0.66,0.43c-0.24,0.1-0.51,0.16-0.79,0.16c-0.28,0-0.54-0.06-0.79-0.16c-0.25-0.1-0.48-0.26-0.67-0.45 l-0.02-0.02c-0.18-0.19-0.33-0.41-0.43-0.65c-0.1-0.24-0.16-0.51-0.16-0.79s0.06-0.55,0.16-0.79l0.01-0.01 c0.1-0.25,0.26-0.47,0.44-0.66c0.19-0.19,0.42-0.34,0.67-0.45l0.01-0.01C21.56,5.86,21.82,5.8,22.09,5.8L22.09,5.8z M89.78,3.86 h-0.13v22.75h29.01V3.86H89.78L89.78,3.86z M98.98,6.39c0.19-0.18,0.41-0.33,0.66-0.43c0.24-0.1,0.51-0.16,0.79-0.16 c0.28,0,0.55,0.06,0.79,0.16l0.01,0.01c0.25,0.1,0.47,0.26,0.66,0.44c0.19,0.19,0.34,0.42,0.45,0.67c0.1,0.24,0.16,0.51,0.16,0.79 c0,0.28-0.06,0.55-0.16,0.79l-0.01,0.01c-0.1,0.24-0.25,0.46-0.43,0.64l-0.03,0.03c-0.19,0.18-0.41,0.33-0.65,0.43 c-0.24,0.1-0.51,0.16-0.79,0.16c-0.28,0-0.55-0.06-0.79-0.16c-0.25-0.1-0.48-0.26-0.67-0.45l0,0c-0.19-0.19-0.34-0.42-0.45-0.67 c-0.1-0.24-0.16-0.51-0.16-0.79s0.06-0.54,0.16-0.79c0.11-0.25,0.26-0.48,0.45-0.67L98.98,6.39L98.98,6.39z M28.45,58.35 c0.28,0,0.55,0.06,0.79,0.16l0.01,0.01c0.25,0.11,0.47,0.26,0.66,0.44l0.01,0.02c0.18,0.19,0.33,0.41,0.43,0.65l0.01,0.01 c0.1,0.24,0.15,0.5,0.15,0.78c0,0.28-0.06,0.54-0.16,0.79c-0.11,0.25-0.26,0.48-0.45,0.67l-0.02,0.01 c-0.19,0.18-0.41,0.33-0.66,0.43c-0.24,0.1-0.51,0.16-0.79,0.16c-0.28,0-0.55-0.06-0.79-0.16c-0.25-0.1-0.48-0.26-0.67-0.45l0,0 c-0.19-0.19-0.34-0.42-0.45-0.67l-0.01-0.01c-0.1-0.24-0.15-0.5-0.15-0.78c0-0.28,0.06-0.55,0.16-0.79 c0.1-0.25,0.26-0.48,0.45-0.67c0.19-0.19,0.42-0.34,0.67-0.45C27.91,58.41,28.17,58.35,28.45,58.35L28.45,58.35z"/>
    </g>
  </symbol>
</svg>
